<?xml version="1.0" encoding="utf-8"?>
<!-- Generator: Adobe Illustrator 19.0.0, SVG Export Plug-In . SVG Version: 6.00 Build 0)  -->
<svg version="1.1" id="图层_1" xmlns="http://www.w3.org/2000/svg" xmlns:xlink="http://www.w3.org/1999/xlink" x="0px" y="0px"
	 viewBox="0 0 32 32" style="enable-background:new 0 0 32 32;" xml:space="preserve">
<style type="text/css">
	.st0{fill:#00A4FF;}
</style>
<g id="XMLID_2_">
	<g id="XMLID_71_">
		<path id="XMLID_72_" class="st0" d="M13.2,21c0.3-0.3,0.7-0.6,1.1-0.9c0.1-0.4,0.2-0.8,0.4-1.1c-0.2,0-0.4,0-0.6,0
			c-5.5,0-10-1.3-10-3V9.8C6.1,11.2,9.8,12,14,12c4.2,0,7.9-0.9,10-2.2v4.5c0.7,0.2,1.4,0.5,2,0.8V7c0-2.8-5.4-5-12-5S2,4.3,2,7v18
			h0c0,2.5,4.4,4.6,10.2,4.9c-0.4-0.6-0.7-1.3-0.9-2.1C7.1,27.6,4,26.4,4,25v-6.2C6,20.1,9.3,20.9,13.2,21z M14,4c5.5,0,10,1.3,10,3
			c0,1.7-4.5,3-10,3C8.5,10,4,8.7,4,7C4,5.4,8.5,4,14,4z M27,22.2c0,0,0-0.1,0-0.1c0-2.8-2.2-5-5-5c-2.8,0-5,2.2-5,5
			c0,0,0,0.1,0,0.1c-1.7,0.4-3,2-3,3.9c0,2.2,1.8,4,4,4h8c2.2,0,4-1.8,4-4C30,24.2,28.7,22.6,27,22.2z M26,28h-8c-1.1,0-2-0.9-2-2
			c0-0.9,0.6-1.7,1.5-1.9l1.5-0.4l0-1.6c0-0.1,0-0.1,0-0.2c0-1.6,1.4-2.9,3-2.9c1.6,0,2.9,1.3,3,2.9c0,0.1,0,0.1,0,0.2l0,1.6
			l1.5,0.4c0.9,0.2,1.5,1,1.5,1.9C28,27.1,27.1,28,26,28z"/>
	</g>
</g>
</svg>
