<svg width="52" height="26" viewBox="0 0 52 26" xmlns="http://www.w3.org/2000/svg" xmlns:xlink="http://www.w3.org/1999/xlink"><svg id="b-24" viewBox="-1 -1 26 26" width="26" height="26"><style>.aast0{fill-rule:evenodd;clip-rule:evenodd;fill:#fff}</style><g id="aaXMLID_2_"><g id="aaXMLID_64_"><path id="aaXMLID_65_" class="aast0" d="M24 5c0-.5-.5-1-1-1H4.6L4 2H1c-.6 0-1 .5-1 1s.4 1 1 1h1.6L7 18h14c.5 0 1-.5 1-1s-.5-1-1-1H8.4l-.6-2h13.8L24 5c0 .1 0 0 0 0zm-3.7 7H7.1L5.2 6H22l-1.7 6zM7.5 19c-.8 0-1.5.7-1.5 1.5S6.7 22 7.5 22 9 21.3 9 20.5 8.3 19 7.5 19zm13 0c-.8 0-1.5.7-1.5 1.5s.7 1.5 1.5 1.5 1.5-.7 1.5-1.5-.7-1.5-1.5-1.5z"/></g></g></svg><svg id="t-24" viewBox="-1 -1 26 26" width="26" height="26" x="26"><style>.abst0{fill-rule:evenodd;clip-rule:evenodd;fill:#fff}</style><g id="abXMLID_3_"><g id="abXMLID_19_"><path id="abXMLID_20_" class="abst0" d="M14 4l-1.3 1.3 5.7 5.8H2v1.8h16.4l-5.7 5.8L14 20l8-8z"/></g></g></svg></svg>