<svg width="52" height="26" xmlns="http://www.w3.org/2000/svg">

 <g>
  <title>background</title>
  <rect fill="none" id="canvas_background" height="402" width="582" y="-1" x="-1"/>
 </g>
 <g>
  <title>Layer 1</title>
  <g id="svg_5">
   <svg stroke="#ffffff" y="-0.136986" x="7.600001" height="26" width="26" viewBox="-1 -1 26 26" id="svg_1">
    <style stroke="#ffffff">.aast0{fill-rule:evenodd;clip-rule:evenodd;fill:#fff}</style>
    <g id="svg_2">
     <g id="svg_3">
      <path stroke="#ffffff" d="m24,5c0,-0.5 -0.5,-1 -1,-1l-18.4,0l-0.6,-2l-3,0c-0.6,0 -1,0.5 -1,1s0.4,1 1,1l1.6,0l4.4,14l14,0c0.5,0 1,-0.5 1,-1s-0.5,-1 -1,-1l-12.6,0l-0.6,-2l13.8,0l2.4,-9c0,0.1 0,0 0,0zm-3.7,7l-13.2,0l-1.9,-6l16.8,0l-1.7,6zm-12.8,7c-0.8,0 -1.5,0.7 -1.5,1.5s0.7,1.5 1.5,1.5s1.5,-0.7 1.5,-1.5s-0.7,-1.5 -1.5,-1.5zm25.8,-7c-0.8,0 -1.5,0.7 -1.5,1.5s0.7,1.5 1.5,1.5s1.5,-0.7 1.5,-1.5s-0.7,-1.5 -1.5,-1.5z" class="aast0" id="svg_4"/>
     </g>
    </g>
   </svg>
  </g>
  <ellipse stroke="#ffffff" ry="0.762711" rx="0.762711" id="svg_20" cy="21.432188" cx="28.58474" fill-opacity="0" stroke-width="2" fill="#000000"/>
 </g>
</svg>