<?xml version="1.0" encoding="utf-8"?>
<!-- Generator: Adobe Illustrator 19.0.0, SVG Export Plug-In . SVG Version: 6.00 Build 0)  -->
<svg version="1.1" id="图层_1" xmlns="http://www.w3.org/2000/svg" xmlns:xlink="http://www.w3.org/1999/xlink" x="0px" y="0px"
	 viewBox="0 0 32 32" style="enable-background:new 0 0 32 32;" xml:space="preserve">
<style type="text/css">
	.st0{fill:none;}
	.st1{fill-rule:evenodd;clip-rule:evenodd;fill:#7c848e;}
</style>
<g>
	<path class="st0" d="M-288.5-2205.5h-2v-2h0c0-4.4-3.6-8-8-8s-8,3.6-8,8h0v2h-2v0h-0.1v4h0.1v8h-0.1v4h20V-2205.5z M-292.5-2193.5
		h-12v-8h12V-2193.5z M-292.5-2205.5h-12v0h2v-2c0-2.2,1.8-4,4-4s4,1.8,4,4v2L-292.5-2205.5L-292.5-2205.5z M-324.5-2227.5v30.5
		c0,0,0.2,21.6,26,27.5c25.8-5.9,26-27.5,26-27.5v-30.5H-324.5z M-276.5-2197.1c0,0-0.1,4.6-2.8,9.7c-3.6,6.9-10.1,11.5-19.2,13.8
		c-21.4-5.4-22-22.7-22-23.4v-26.5h44V-2197.1z"/>
</g>
<g id="XMLID_12_">
	<g id="XMLID_92_">
		<path id="XMLID_93_" class="st1" d="M1,3.1v25h30v-25H1z M3,26l0-15h26l0,15H3z M29,9H3l0-4h26L29,9z M27,6h-3v2h3L27,6z M22,6h-3
			v2h3V6z M9.2,13.8L5,18l1.4,1.4l0,0l2.8,2.8l1.4-1.4L7.8,18l2.8-2.8L9.2,13.8z M25.7,16.6l-2.7-2.8l-1.4,1.4l2.7,2.8l-2.7,2.8
			l1.4,1.4L27,18L25.7,16.6L25.7,16.6z M12,23l1.7,1l6-10.4l-1.7-1L12,23z"/>
	</g>
</g>
</svg>
