<?xml version="1.0" encoding="utf-8"?>
<!-- Generator: Adobe Illustrator 19.0.0, SVG Export Plug-In . SVG Version: 6.00 Build 0)  -->
<svg version="1.1" id="图层_1" xmlns="http://www.w3.org/2000/svg" xmlns:xlink="http://www.w3.org/1999/xlink" x="0px" y="0px"
	 viewBox="9 -12 32 32" style="enable-background:new 9 -12 32 32;" xml:space="preserve">
<style type="text/css">
	.st0{fill:none;}
	.st1{fill:#00A4FF;}
</style>
<g>
	<path class="st0" d="M-270.5-2229.5h-2v-2l0,0c0-4.4-3.6-8-8-8s-8,3.6-8,8l0,0v2h-2l0,0h-0.1v4h0.1v8h-0.1v4h20v-16H-270.5z
		 M-274.5-2217.5h-12v-8h12V-2217.5z M-274.5-2229.5h-12l0,0h2v-2c0-2.2,1.8-4,4-4s4,1.8,4,4v2H-274.5L-274.5-2229.5z
		 M-306.5-2251.5v30.5c0,0,0.2,21.6,26,27.5c25.8-5.9,26-27.5,26-27.5v-30.5H-306.5z M-258.5-2221.1c0,0-0.1,4.6-2.8,9.7
		c-3.6,6.9-10.1,11.5-19.2,13.8c-21.4-5.4-22-22.7-22-23.4v-26.5h44V-2221.1z"/>
</g>
<g>
	<g>
		<path class="st1" d="M40,10V-8H10v24h30v-2H12V-1h26v11H40z M12-3v-3h26v3H12z M24.2,12l2.6-10.5l-2-0.5l-2.6,10.5L24.2,12z
			 M18.5,3L15,6.5l3.5,3.5l1.4-1.4l-2.1-2.1l2.1-2.1L18.5,3z M31.4,10l2.1-2.1h0L35,6.5L31.4,3L30,4.4l2.1,2.1L30,8.6L31.4,10z"/>
	</g>
</g>
</svg>
