<?xml version="1.0" encoding="utf-8"?>
<!-- Generator: Adobe Illustrator 19.0.0, SVG Export Plug-In . SVG Version: 6.00 Build 0)  -->
<svg version="1.1" id="图层_1" xmlns="http://www.w3.org/2000/svg" xmlns:xlink="http://www.w3.org/1999/xlink" x="0px" y="0px"
	 viewBox="0 0 32 32" style="enable-background:new 0 0 32 32;" xml:space="preserve">
<style type="text/css">
	.st0{fill:none;}
	.st1{fill-rule:evenodd;clip-rule:evenodd;fill:#7c848e;}
</style>
<g>
	<path class="st0" d="M-288.5-2205.5h-2v-2h0c0-4.4-3.6-8-8-8s-8,3.6-8,8h0v2h-2v0h-0.1v4h0.1v8h-0.1v4h20V-2205.5z M-292.5-2193.5
		h-12v-8h12V-2193.5z M-292.5-2205.5h-12v0h2v-2c0-2.2,1.8-4,4-4s4,1.8,4,4v2L-292.5-2205.5L-292.5-2205.5z M-324.5-2227.5v30.5
		c0,0,0.2,21.6,26,27.5c25.8-5.9,26-27.5,26-27.5v-30.5H-324.5z M-276.5-2197.1c0,0-0.1,4.6-2.8,9.7c-3.6,6.9-10.1,11.5-19.2,13.8
		c-21.4-5.4-22-22.7-22-23.4v-26.5h44V-2197.1z"/>
</g>
<g id="XMLID_18_">
	<g id="XMLID_89_">
		<path id="XMLID_90_" class="st1" d="M31,11.5v-2h-4.5v-3c0-0.6-0.4-1-1-1h-3V1h-2v4.5H17V1h-2v4.5h-3.5V1h-2v4.5h-3
			c-0.6,0-1,0.4-1,1v3H1v2h4.5V15H1v2h4.5v3.5H1v2h4.5v3c0,0.6,0.4,1,1,1h3V31h2v-4.5H15V31h2v-4.5h3.5V31h2v-4.5h3c0.6,0,1-0.4,1-1
			v-3H31v-2h-4.5V17H31v-2h-4.5v-3.5H31z M24.5,23.5c0,0.8-0.1,1-1,1h-15c-1,0-1,0-1-1v-15c0-1,0.1-1,1-1h15c0.9,0,1,0,1,1V23.5z
			 M19.5,11.5h-7c-0.6,0-1,0.4-1,1v7c0,0.6,0.4,1,1,1h7c0.6,0,1-0.4,1-1v-7C20.5,11.9,20.1,11.5,19.5,11.5z M17.5,18.5h-3
			c-1,0-1-0.1-1-1v-3c0-1-0.2-1,1-1h3c0.9,0,1,0,1,1v3C18.5,18.4,18.6,18.5,17.5,18.5z"/>
	</g>
</g>
</svg>
