<?xml version="1.0" encoding="utf-8"?>
<!-- Generator: Adobe Illustrator 19.0.0, SVG Export Plug-In . SVG Version: 6.00 Build 0)  -->
<svg version="1.1" id="图层_1" xmlns="http://www.w3.org/2000/svg" xmlns:xlink="http://www.w3.org/1999/xlink" x="0px" y="0px"
	 viewBox="0 0 32 32" style="enable-background:new 0 0 32 32;" xml:space="preserve">
<style type="text/css">
	.st0{fill:none;}
	.st1{fill-rule:evenodd;clip-rule:evenodd;fill:#7C848E;}
</style>
<g>
	<path class="st0" d="M-288.5-2205.5h-2v-2h0c0-4.4-3.6-8-8-8s-8,3.6-8,8h0v2h-2v0h-0.1v4h0.1v8h-0.1v4h20V-2205.5z M-292.5-2193.5
		h-12v-8h12V-2193.5z M-292.5-2205.5h-12v0h2v-2c0-2.2,1.8-4,4-4s4,1.8,4,4v2L-292.5-2205.5L-292.5-2205.5z M-324.5-2227.5v30.5
		c0,0,0.2,21.6,26,27.5c25.8-5.9,26-27.5,26-27.5v-30.5H-324.5z M-276.5-2197.1c0,0-0.1,4.6-2.8,9.7c-3.6,6.9-10.1,11.5-19.2,13.8
		c-21.4-5.4-22-22.7-22-23.4v-26.5h44V-2197.1z"/>
</g>
<g id="XMLID_26_">
	<g id="XMLID_135_">
		<path id="XMLID_136_" class="st1" d="M21,15c-1.1,0-2,0.9-2,2h0v4h2v-4h0V15z M27,21v-4h0c0-1.1-0.9-2-2-2v0h-4v2h1v4h2v-4h1v4H27
			z M31,22V4H1v24h30v-2h-2v0H3V11h26v11H31z M3,9V6h26v3H3z M15,17h1v-2h-1v0c-1.1,0-2,0.9-2,2h0v2h0c0,1.1,0.9,2,2,2v0h1v-2h-1V17
			z M18,19v-2c0-1.1-0.9-2-2-2v2h0v2h0v2C17.1,21,18,20.1,18,19z M10,17v-2c-1.1,0-2,0.9-2,2v2c0,1.1,0.9,2,2,2v-2h0L10,17L10,17z
			 M12,21v-2h-2v2H12z M7,21v-2H5v2H7z M12,15h-2v2h2V15z"/>
	</g>
</g>
</svg>
