<?xml version="1.0" encoding="utf-8"?>
<!-- Generator: Adobe Illustrator 19.0.0, SVG Export Plug-In . SVG Version: 6.00 Build 0)  -->
<svg version="1.1" id="图层_1" xmlns="http://www.w3.org/2000/svg" xmlns:xlink="http://www.w3.org/1999/xlink" x="0px" y="0px"
	 viewBox="0 0 32 32" style="enable-background:new 0 0 32 32;" xml:space="preserve">
<style type="text/css">
	.st0{fill:none;}
	.st1{fill-rule:evenodd;clip-rule:evenodd;fill:#7c848e;}
</style>
<g>
	<path class="st0" d="M-288.5-2205.5h-2v-2h0c0-4.4-3.6-8-8-8s-8,3.6-8,8h0v2h-2v0h-0.1v4h0.1v8h-0.1v4h20V-2205.5z M-292.5-2193.5
		h-12v-8h12V-2193.5z M-292.5-2205.5h-12v0h2v-2c0-2.2,1.8-4,4-4s4,1.8,4,4v2L-292.5-2205.5L-292.5-2205.5z M-324.5-2227.5v30.5
		c0,0,0.2,21.6,26,27.5c25.8-5.9,26-27.5,26-27.5v-30.5H-324.5z M-276.5-2197.1c0,0-0.1,4.6-2.8,9.7c-3.6,6.9-10.1,11.5-19.2,13.8
		c-21.4-5.4-22-22.7-22-23.4v-26.5h44V-2197.1z"/>
</g>
<g id="XMLID_8_">
	<g id="XMLID_54_">
		<path id="XMLID_55_" class="st1" d="M31.7,28.9l-4.1-4.1c-0.4-0.4-1-0.4-1.4,0l-1.5-1.5c2.1-2.4,3.4-5.5,3.4-9
			c0-7.5-6.1-13.6-13.6-13.6S1,6.8,1,14.3s6.1,13.6,13.6,13.6c3.3,0,6.4-1.2,8.7-3.2l1.5,1.5c-0.4,0.4-0.4,1,0,1.4l4.1,4.1
			c0.4,0.4,1,0.4,1.4,0l1.4-1.4C32.1,29.9,32.1,29.3,31.7,28.9z M14.6,25.9C8.2,25.9,3,20.7,3,14.3C3,8,8.2,2.8,14.6,2.8
			c6.4,0,11.6,5.2,11.6,11.6C26.1,20.7,20.9,25.9,14.6,25.9z M12.3,18.2l-5-5l-1.4,1.4l6.4,6.4l9.9-9.9l-1.4-1.4L12.3,18.2z"/>
	</g>
</g>
</svg>
