<?xml version="1.0" encoding="utf-8"?>
<!-- Generator: Adobe Illustrator 17.0.0, SVG Export Plug-In . SVG Version: 6.00 Build 0)  -->
<!DOCTYPE svg PUBLIC "-//W3C//DTD SVG 1.1//EN" "http://www.w3.org/Graphics/SVG/1.1/DTD/svg11.dtd">
<svg version="1.1" id="图层_1" xmlns="http://www.w3.org/2000/svg" xmlns:xlink="http://www.w3.org/1999/xlink" x="0px" y="0px"
	 width="32px" height="32px" viewBox="267 52 32 32" style="enable-background:new 267 52 32 32;" xml:space="preserve">
<style type="text/css">
	.st0{opacity:0.2;fill:#FFFFFF;}
	.st1{enable-background:new    ;}
	.st2{fill:#0085F6;}
	.st3{fill:url(#SVGID_1_);}
	.st4{fill:url(#SVGID_2_);}
	.st5{fill:url(#SVGID_3_);}
	.st6{fill:#00a4ff;}
	.st7{fill:#00A4FF;}
	.st8{fill-rule:evenodd;clip-rule:evenodd;fill:#00a4ff;}
	.st9{fill:#2274E5;}
	.st10{fill:url(#SVGID_4_);}
</style>
<g>
	<polygon class="st7" points="269,58 269,73 271,73 271,59 274,56 297,56 297,54 273,54 269,58 269,58 269,58 269,58 	"/>
	<polygon class="st7" points="297,59 295,59 295,77 295,77 292,80 274,80 271,77 271,77 271,73 269,73 269,78 269,78 273,82 293,82 
		297,78 297,78 297,78 	"/>
	<path class="st7" d="M290,67v-6h-14v6h1h1h2l-1,1v2h9v2h0v2h0h2v-4v-2h-2h-2l1-1v-2h-9v-2h10v4H290z M282,67h3l-1,1h-3L282,67z"/>
	<polygon class="st7" points="276,68 276,74 284.5,74 286,76 288,76 285,72 283,72 278,72 278,68 	"/>
</g>
</svg>
