<?xml version="1.0" encoding="utf-8"?>
<!-- Generator: Adobe Illustrator 16.0.0, SVG Export Plug-In . SVG Version: 6.00 Build 0)  -->
<!DOCTYPE svg PUBLIC "-//W3C//DTD SVG 1.1//EN" "http://www.w3.org/Graphics/SVG/1.1/DTD/svg11.dtd">
<svg version="1.1" id="图层_1" xmlns="http://www.w3.org/2000/svg" xmlns:xlink="http://www.w3.org/1999/xlink" x="0px" y="0px"
	 width="32px" height="32px" viewBox="0 0 32 32" enable-background="new 0 0 32 32" xml:space="preserve">
<g>
	<g>
		<path fill="#7C848E" d="M0,2.984v2.01h30.086v18.059h2.078V2.984H0z M2.078,8.98H0v20.035h32.082v-2H2.078V8.98z M11.056,13.001
			h15.077L22.111,8.98v2.01H11.056c-1.608,0-3.016,1.407-3.016,3.015s1.408,3.016,3.016,3.016h3.015v-2.01h-3.015
			c-0.603,0-1.005-0.403-1.005-1.005S10.454,13.001,11.056,13.001z M10.051,23.053v-2.012h11.057c1.607,0,3.016-1.406,3.016-3.016
			c0-1.607-1.408-3.014-3.016-3.014h-3.016v2.01h3.016c0.602,0,1.004,0.402,1.004,1.004c0,0.604-0.402,1.006-1.004,1.006H6.031
			L10.051,23.053z"/>
	</g>
</g>
</svg>
