<?xml version="1.0" encoding="utf-8"?>
<!-- Generator: Adobe Illustrator 19.0.0, SVG Export Plug-In . SVG Version: 6.00 Build 0)  -->
<svg version="1.1" id="图层_1" xmlns="http://www.w3.org/2000/svg" xmlns:xlink="http://www.w3.org/1999/xlink" x="0px" y="0px"
	 viewBox="0 0 32 32" style="enable-background:new 0 0 32 32;" xml:space="preserve">
<style type="text/css">
	.st0{fill:none;}
	.st1{fill-rule:evenodd;clip-rule:evenodd;fill:#7c848e;}
</style>
<g>
	<path class="st0" d="M-288.5-2205.5h-2v-2h0c0-4.4-3.6-8-8-8s-8,3.6-8,8h0v2h-2v0h-0.1v4h0.1v8h-0.1v4h20V-2205.5z M-292.5-2193.5
		h-12v-8h12V-2193.5z M-292.5-2205.5h-12v0h2v-2c0-2.2,1.8-4,4-4s4,1.8,4,4v2L-292.5-2205.5L-292.5-2205.5z M-324.5-2227.5v30.5
		c0,0,0.2,21.6,26,27.5c25.8-5.9,26-27.5,26-27.5v-30.5H-324.5z M-276.5-2197.1c0,0-0.1,4.6-2.8,9.7c-3.6,6.9-10.1,11.5-19.2,13.8
		c-21.4-5.4-22-22.7-22-23.4v-26.5h44V-2197.1z"/>
</g>
<g id="XMLID_26_">
	<g id="XMLID_153_">
		<path id="XMLID_154_" class="st1" d="M32,21.5L25.5,18l-6.4,3.5H19v7h0l5.5,3v0h0.1l0.9,0.5l0.9-0.5h0.1v0l5.5-3h0L32,21.5
			L32,21.5z M24.5,29.3l-3.5-2v-3.2l3.5,2V29.3z M25.4,24.4l-3.8-2l4.1-2.3l3.7,2.1L25.4,24.4z M30,27.5l-3.5,2V26l3.5-2V27.5z
			 M22.1,14.6L22.1,14.6l1.1,0.7l0,0l1.8,1.2l-0.6-3.8l-1,0.8l-5.6-3.7l-1.3,1.1L22.1,14.6L22.1,14.6z M11.6,14.2l3,2l1.3-1.1l-3-2
			L11.6,14.2z M20.4,18.1l-3-2l-1.3,1.1l3,2L20.4,18.1z M13.5,20.1l-5.6-3.7l-1.3,1.1l5.6,3.7l-1,0.8l5.3,0.1L13.5,20.1L13.5,20.1z
			 M7.5,13.5L7.5,13.5l5.5-3v-7h0L6.5,0L0.1,3.5H0v7l5.5,3v0h0.1L6.5,14L7.5,13.5L7.5,13.5z M11,9.5l-3.5,2V8L11,6V9.5z M5.5,11.3
			L2,9.3V6.1l3.5,2V11.3z M6.4,6.4l-3.8-2L6.7,2l3.7,2.1L6.4,6.4z"/>
	</g>
</g>
</svg>
