<?xml version="1.0" encoding="utf-8"?>
<!-- Generator: Adobe Illustrator 19.0.0, SVG Export Plug-In . SVG Version: 6.00 Build 0)  -->
<svg version="1.1" id="图层_1" xmlns="http://www.w3.org/2000/svg" xmlns:xlink="http://www.w3.org/1999/xlink" x="0px" y="0px"
	 viewBox="0 0 32 32" style="enable-background:new 0 0 32 32;" xml:space="preserve">
<style type="text/css">
	.st0{fill:none;}
	.st1{fill-rule:evenodd;clip-rule:evenodd;fill:#7C848E;}
</style>
<g>
	<path class="st0" d="M-288.5-2205.5h-2v-2h0c0-4.4-3.6-8-8-8s-8,3.6-8,8h0v2h-2v0h-0.1v4h0.1v8h-0.1v4h20V-2205.5z M-292.5-2193.5
		h-12v-8h12V-2193.5z M-292.5-2205.5h-12v0h2v-2c0-2.2,1.8-4,4-4s4,1.8,4,4v2L-292.5-2205.5L-292.5-2205.5z M-324.5-2227.5v30.5
		c0,0,0.2,21.6,26,27.5c25.8-5.9,26-27.5,26-27.5v-30.5H-324.5z M-276.5-2197.1c0,0-0.1,4.6-2.8,9.7c-3.6,6.9-10.1,11.5-19.2,13.8
		c-21.4-5.4-22-22.7-22-23.4v-26.5h44V-2197.1z"/>
</g>
<g id="XMLID_7_">
	<g id="XMLID_50_">
		<path id="XMLID_51_" class="st1" d="M26,13.2c0-0.1,0-0.1,0-0.1c0-5.5-4.5-10-10-10S6,7.5,6,13c0,0.1,0,0.1,0,0.1
			c-3.4,0.7-6,3.7-6,7.4c0,4,3.1,7.2,7,7.5v0h7v-2H7.4l-0.3,0C4.3,25.8,2,23.4,2,20.5c0-2.6,1.9-4.9,4.4-5.4L8,14.8l0-1.7
			C8,13.1,8,13,8,13c0-4.4,3.6-8,8-8c4.4,0,8,3.6,8,8c0,0.1,0,0.1,0,0.2l0,1.7l1.6,0.3c2.6,0.5,4.4,2.8,4.4,5.4
			c0,2.9-2.3,5.3-5.1,5.5l-0.3,0H18v2h7v0c3.9-0.3,7-3.5,7-7.5C32,16.9,29.4,13.8,26,13.2z M20.3,17.1L13.8,13
			c-0.1-0.1-0.2-0.1-0.3-0.1c-0.3,0-0.5,0.2-0.5,0.5v8.2c0,0.3,0.2,0.5,0.5,0.5c0.1,0,0.2,0,0.3-0.1l6.5-4.1
			C20.6,17.7,20.6,17.3,20.3,17.1z M15,18.9v-2.8l2.2,1.4L15,18.9z"/>
	</g>
</g>
</svg>
