<?xml version="1.0" encoding="utf-8"?>
<!-- Generator: Adobe Illustrator 19.0.0, SVG Export Plug-In . SVG Version: 6.00 Build 0)  -->
<svg version="1.1" id="图层_1" xmlns="http://www.w3.org/2000/svg" xmlns:xlink="http://www.w3.org/1999/xlink" x="0px" y="0px"
	 viewBox="0 0 32 32" style="enable-background:new 0 0 32 32;" xml:space="preserve">
<style type="text/css">
	.st0{fill:none;}
	.st1{fill-rule:evenodd;clip-rule:evenodd;fill:#7c848e;}
</style>
<g>
	<path class="st0" d="M-288.5-2205.5h-2v-2h0c0-4.4-3.6-8-8-8s-8,3.6-8,8h0v2h-2v0h-0.1v4h0.1v8h-0.1v4h20V-2205.5z M-292.5-2193.5
		h-12v-8h12V-2193.5z M-292.5-2205.5h-12v0h2v-2c0-2.2,1.8-4,4-4s4,1.8,4,4v2L-292.5-2205.5L-292.5-2205.5z M-324.5-2227.5v30.5
		c0,0,0.2,21.6,26,27.5c25.8-5.9,26-27.5,26-27.5v-30.5H-324.5z M-276.5-2197.1c0,0-0.1,4.6-2.8,9.7c-3.6,6.9-10.1,11.5-19.2,13.8
		c-21.4-5.4-22-22.7-22-23.4v-26.5h44V-2197.1z"/>
</g>
<g id="XMLID_2_">
	<g id="XMLID_82_">
		<path id="XMLID_83_" class="st1" d="M19,9c-2.2,0-4,1.8-4,4h0v6c0,1.1-0.9,2-2,2s-2-0.9-2-2c0-0.7,0.4-1.4,1-1.7l0,0
			c0.5-0.1,0.9-0.5,0.9-1c0-0.6-0.4-1-1-1c-0.1,0-0.1,0-0.2,0l0,0c0,0,0,0,0,0c-0.1,0-0.2,0-0.2,0.1C10.1,15.9,9,17.3,9,19
			c0,2.2,1.8,4,4,4s4-1.8,4-4v-6c0-1.1,0.9-2,2-2s2,0.9,2,2c0,0.7-0.4,1.4-1,1.7c-0.5,0-1,0.4-1,1c0,0.6,0.4,1,1,1c0,0,0.1,0,0.1,0
			l0,0c0,0,0.1,0,0.1,0c0.1,0,0.2,0,0.2-0.1C22,16.1,23,14.7,23,13C23,10.8,21.2,9,19,9z M31,11V9h-4V7c0-1.1-0.9-2-2-2h-2V1h-2v4
			h-4V1h-2v4h-4V1H9v4H7C5.9,5,5,5.9,5,7v2H1v2h4v4H1v2h4v4H1v2h4v2c0,1.1,0.9,2,2,2h2v4h2v-4h4v4h2v-4h4v4h2v-4h2c1.1,0,2-0.9,2-2
			v-2h4v-2h-4v-4h4v-2h-4v-4H31z M25,23c0,2-0.2,2-2,2H9c-1.9,0-2-0.3-2-2V9c0-1.9,0-2,2-2h14c1.9,0,2,0.2,2,2V23z"/>
	</g>
</g>
</svg>
